<?xml version="1.0" encoding="UTF-8" standalone="no"?>
<!DOCTYPE svg PUBLIC "-//W3C//DTD SVG 1.1//EN"
 "http://www.w3.org/Graphics/SVG/1.1/DTD/svg11.dtd">
<!-- Generated by graphviz version 12.2.1 (0)
 -->
<!-- Pages: 1 -->
<svg width="534pt" height="98pt"
 viewBox="0.00 0.00 533.50 98.00" xmlns="http://www.w3.org/2000/svg" xmlns:xlink="http://www.w3.org/1999/xlink">
<g id="graph0" class="graph" transform="scale(1 1) rotate(0) translate(4 94)">
<polygon fill="white" stroke="none" points="-4,4 -4,-94 529.5,-94 529.5,4 -4,4"/>
<!-- input -->
<g id="node1" class="node">
<title>input</title>
<polygon fill="none" stroke="black" stroke-dasharray="5,2" points="54,-90 0,-90 0,-54 54,-54 54,-90"/>
<text text-anchor="middle" x="27" y="-66.95" font-family="Times,serif" font-size="14.00">Input</text>
</g>
<!-- affine1 -->
<g id="node2" class="node">
<title>affine1</title>
<polygon fill="#71c8b0" stroke="#71c8b0" points="144,-90 90,-90 90,-54 144,-54 144,-90"/>
<text text-anchor="middle" x="117" y="-66.95" font-family="Times,serif" font-size="14.00">Affine</text>
</g>
<!-- input&#45;&gt;affine1 -->
<g id="edge1" class="edge">
<title>input&#45;&gt;affine1</title>
<path fill="none" stroke="black" d="M54.4,-72C61.89,-72 70.18,-72 78.2,-72"/>
<polygon fill="black" stroke="black" points="78.1,-75.5 88.1,-72 78.1,-68.5 78.1,-75.5"/>
</g>
<!-- cu1 -->
<g id="node3" class="node">
<title>cu1</title>
<polygon fill="#a0d5f1" stroke="#a0d5f1" points="244.75,-90 180,-90 180,-54 244.75,-54 244.75,-90"/>
<text text-anchor="middle" x="212.38" y="-66.95" font-family="Times,serif" font-size="14.00">CubaLIF</text>
</g>
<!-- affine1&#45;&gt;cu1 -->
<g id="edge2" class="edge">
<title>affine1&#45;&gt;cu1</title>
<path fill="none" stroke="black" d="M144.01,-72C151.49,-72 159.86,-72 168.09,-72"/>
<polygon fill="black" stroke="black" points="168.01,-75.5 178.01,-72 168.01,-68.5 168.01,-75.5"/>
</g>
<!-- affine_rec -->
<g id="node4" class="node">
<title>affine_rec</title>
<polygon fill="#71c8b0" stroke="#71c8b0" points="334.75,-90 280.75,-90 280.75,-54 334.75,-54 334.75,-90"/>
<text text-anchor="middle" x="307.75" y="-66.95" font-family="Times,serif" font-size="14.00">Affine</text>
</g>
<!-- cu1&#45;&gt;affine_rec -->
<g id="edge4" class="edge">
<title>cu1&#45;&gt;affine_rec</title>
<path fill="none" stroke="black" d="M245.25,-65.56C252.83,-65.23 260.99,-65.16 268.81,-65.36"/>
<polygon fill="black" stroke="black" points="268.64,-68.85 278.78,-65.78 268.94,-61.86 268.64,-68.85"/>
</g>
<!-- affine2 -->
<g id="node5" class="node">
<title>affine2</title>
<polygon fill="#71c8b0" stroke="#71c8b0" points="334.75,-36 280.75,-36 280.75,0 334.75,0 334.75,-36"/>
<text text-anchor="middle" x="307.75" y="-12.95" font-family="Times,serif" font-size="14.00">Affine</text>
</g>
<!-- cu1&#45;&gt;affine2 -->
<g id="edge5" class="edge">
<title>cu1&#45;&gt;affine2</title>
<path fill="none" stroke="black" d="M245.25,-53.57C253.36,-48.88 262.14,-43.8 270.46,-38.99"/>
<polygon fill="black" stroke="black" points="272.08,-42.09 278.98,-34.06 268.57,-36.03 272.08,-42.09"/>
</g>
<!-- affine_rec&#45;&gt;cu1 -->
<g id="edge3" class="edge">
<title>affine_rec&#45;&gt;cu1</title>
<path fill="none" stroke="black" d="M280.29,-78.15C272.88,-78.62 264.63,-78.81 256.52,-78.73"/>
<polygon fill="black" stroke="black" points="256.85,-75.24 246.76,-78.48 256.67,-82.24 256.85,-75.24"/>
</g>
<!-- cu2 -->
<g id="node6" class="node">
<title>cu2</title>
<polygon fill="#a0d5f1" stroke="#a0d5f1" points="435.5,-36 370.75,-36 370.75,0 435.5,0 435.5,-36"/>
<text text-anchor="middle" x="403.12" y="-12.95" font-family="Times,serif" font-size="14.00">CubaLIF</text>
</g>
<!-- affine2&#45;&gt;cu2 -->
<g id="edge6" class="edge">
<title>affine2&#45;&gt;cu2</title>
<path fill="none" stroke="black" d="M334.76,-18C342.24,-18 350.61,-18 358.84,-18"/>
<polygon fill="black" stroke="black" points="358.76,-21.5 368.76,-18 358.76,-14.5 358.76,-21.5"/>
</g>
<!-- output -->
<g id="node7" class="node">
<title>output</title>
<polygon fill="none" stroke="black" stroke-dasharray="5,2" points="525.5,-36 471.5,-36 471.5,0 525.5,0 525.5,-36"/>
<text text-anchor="middle" x="498.5" y="-12.95" font-family="Times,serif" font-size="14.00">Output</text>
</g>
<!-- cu2&#45;&gt;output -->
<g id="edge7" class="edge">
<title>cu2&#45;&gt;output</title>
<path fill="none" stroke="black" d="M436,-18C443.58,-18 451.74,-18 459.56,-18"/>
<polygon fill="black" stroke="black" points="459.53,-21.5 469.53,-18 459.53,-14.5 459.53,-21.5"/>
</g>
</g>
</svg>
